<svg width="71" height="90" viewBox="0 0 71 90" fill="none" xmlns="http://www.w3.org/2000/svg">
<path d="M13.5954 45H40.9764M13.5954 57.1905H51.9288M13.5954 69.3809H30.024M68.3573 75.4762V32.8095L40.9764 2.33333H13.5954C10.6907 2.33333 7.90491 3.61768 5.85094 5.90384C3.79697 8.18999 2.64307 11.2907 2.64307 14.5238V75.4762C2.64307 78.7093 3.79697 81.81 5.85094 84.0962C7.90491 86.3823 10.6907 87.6667 13.5954 87.6667H57.405C60.3097 87.6667 63.0955 86.3823 65.1495 84.0962C67.2034 81.81 68.3573 78.7093 68.3573 75.4762Z" stroke="black" stroke-width="4" stroke-linecap="round" stroke-linejoin="round"/>
<path d="M40.9766 2.33333V20.619C40.9766 23.8522 42.1305 26.9529 44.1844 29.239C46.2384 31.5252 49.0242 32.8095 51.9289 32.8095H68.3575" stroke="black" stroke-width="3" stroke-linecap="round" stroke-linejoin="round"/>
</svg>
