<svg width="55" height="60" viewBox="0 0 55 60" fill="none" xmlns="http://www.w3.org/2000/svg">
<g clip-path="url(#clip0_104_125)">
<path d="M27.5 24C28.8807 24 30 23.1046 30 22C30 20.8954 28.8807 20 27.5 20C26.1193 20 25 20.8954 25 22C25 23.1046 26.1193 24 27.5 24Z" fill="black"/>
<path d="M32.375 39H29.125V27H24.25C23.819 27 23.4057 27.158 23.101 27.4393C22.7962 27.7206 22.625 28.1022 22.625 28.5C22.625 28.8978 22.7962 29.2794 23.101 29.5607C23.4057 29.842 23.819 30 24.25 30H25.875V39H22.625C22.194 39 21.7807 39.158 21.476 39.4393C21.1712 39.7206 21 40.1022 21 40.5C21 40.8978 21.1712 41.2794 21.476 41.5607C21.7807 41.842 22.194 42 22.625 42H32.375C32.806 42 33.2193 41.842 33.524 41.5607C33.8288 41.2794 34 40.8978 34 40.5C34 40.1022 33.8288 39.7206 33.524 39.4393C33.2193 39.158 32.806 39 32.375 39Z" fill="black"/>
<path d="M27.5 13C23.8411 13 20.2643 14.085 17.222 16.1178C14.1796 18.1506 11.8085 21.0399 10.4082 24.4204C9.00802 27.8008 8.64165 31.5205 9.35548 35.1092C10.0693 38.6978 11.8313 41.9942 14.4185 44.5815C17.0058 47.1687 20.3022 48.9307 23.8908 49.6445C27.4795 50.3583 31.1992 49.992 34.5796 48.5918C37.9601 47.1915 40.8494 44.8204 42.8822 41.778C44.915 38.7357 46 35.159 46 31.5C46 26.5935 44.0509 21.8879 40.5815 18.4185C37.1121 14.9491 32.4065 13 27.5 13ZM27.5 46.9167C24.4509 46.9167 21.4702 46.0125 18.935 44.3185C16.3997 42.6245 14.4237 40.2167 13.2569 37.3997C12.09 34.5827 11.7847 31.4829 12.3796 28.4924C12.9744 25.5018 14.4427 22.7548 16.5988 20.5988C18.7548 18.4427 21.5018 16.9744 24.4924 16.3796C27.4829 15.7847 30.5827 16.09 33.3997 17.2569C36.2167 18.4237 38.6245 20.3997 40.3185 22.935C42.0125 25.4702 42.9167 28.4509 42.9167 31.5C42.9167 33.5245 42.5179 35.5293 41.7431 37.3997C40.9684 39.2701 39.8328 40.9697 38.4012 42.4012C36.9697 43.8328 35.2701 44.9684 33.3997 45.7431C31.5293 46.5179 29.5245 46.9167 27.5 46.9167Z" fill="black"/>
</g>
<defs>
<clipPath id="clip0_104_125">
<rect width="55" height="60" fill="white"/>
</clipPath>
</defs>
</svg>
